#N canvas 511 190 940 589 10;
#X obj 44 79 unpackOSC;
#X obj 72 332 packOSC;
#X obj 157 101 send fromGUI;
#X obj 43 53 udpreceive 54300;
#X msg 86 383 connect localhost 54310;
#X obj 68 282 receive toGUI;
#X obj 248 200 send fromSystem;
#X obj 477 196 send fromNetwork;
#X obj 251 281 receive toSystem;
#X obj 496 240 receive toNetwork;
#X obj 251 314 list trim;
#X msg 137 418 disconnect;
#X obj 156 75 list;
#X obj 248 170 list;
#X obj 70 306 list trim;
#X obj 509 358 udpsend;
#X obj 502 292 packOSC;
#X obj 500 266 list trim;
#X obj 477 146 unpackOSC;
#X msg 567 362 disconnect;
#X obj 475 168 list;
#X obj 251 356 packOSC;
#X floatatom 41 169 5 0 0 0 - - -, f 5;
#N canvas 818 136 803 436 udpreceive 0;
#X obj 77 355 outlet;
#X obj 77 326 r \$0-to.out1;
#X obj 197 355 outlet;
#X obj 197 326 r \$0-to.out2;
#X obj 98 67 inlet;
#N canvas 907 552 450 300 \$0-patch-space 0;
#X obj 20 20 udpreceive 54321;
#X obj 20 50 send 1011-to.out1;
#X obj 150 50 send 1011-to.out2;
#X connect 0 0 1 0;
#X connect 0 1 2 0;
#X restore 102 263 pd \$0-patch-space;
#X obj 98 199 s pd-\$0-patch-space;
#X msg 98 150 clear \, obj 20 20 udpreceive \$1 \, obj 20 50 send \$2-to.out1
\, obj 150 50 send \$2-to.out2 \, connect 0 0 1 0 \, connect 0 1 2
0;
#X obj 98 115 pack \$1 \$0;
#X text 318 89 thanks to "udpreceive.mmb" by .mmb;
#X connect 1 0 0 0;
#X connect 3 0 2 0;
#X connect 4 0 8 0;
#X connect 7 0 6 0;
#X connect 8 0 7 0;
#X restore 474 110 pd udpreceive 54321;
#X msg 322 344 prefix /system;
#X obj 450 13 loadbang;
#X obj 449 41 trigger b b b;
#X msg 475 72 /system requestPort;
#X text 22 -44 Don't change this patch! Just leave it open \, it fakes
the interface-to-Pd communication that happens internally in the iOS
app. I recommend you only have one MobMuPlat docment open and interacting
with Pd at a time \, otherwise things (network port numbers \, etc)
can get confused...;
#X obj 42 102 routeOSC /system;
#X obj 619 99 loadbang;
#X msg 621 131 54321;
#X obj 67 419 udpsend;
#X msg 523 334 connect 224.0.0.1 54321;
#X msg 497 397 disconnect \, connect 224.0.0.1 \$1;
#X obj 516 14 bng 15 250 50 0 empty empty empty 17 7 0 10 -262144 -1
-1;
#X obj 458 456 t b;
#X msg 452 474 LANDINI messages are not implemented in this simulator
;
#X text 516 -14 hit this bang to reconnect;
#X obj 457 432 routeOSC /send /sendGD /sendOGD;
#X obj 459 497 print warning;
#X obj 42 138 routeOSC /port /requestTable /setTable;
#N canvas 64 84 605 387 tablestuff 0;
#X obj 53 5 inlet;
#X msg 147 84 \; \$2 write \$1;
#X obj 54 26 list;
#X obj 65 84 unpack s s;
#X msg 62 223 list /tableResponse \$1 done;
#X obj 63 252 send toSystem;
#X obj 364 8 inlet;
#X obj 472 398 tabwrite dummyTable;
#X msg 498 82 set \$1;
#X obj 390 118 -;
#X obj 389 95 swap;
#X floatatom 388 140 5 0 0 0 - - -, f 5;
#X obj 375 206 until;
#X obj 385 285 /, f 4;
#X obj 380 228 int;
#X obj 413 228 + 1;
#X obj 382 162 t f f b;
#X msg 420 206 0;
#X obj 438 121 -;
#X obj 437 98 swap;
#X obj 385 314 *;
#X text 420 287 0-1;
#X text 416 317 times delta y;
#X obj 383 344 +;
#X text 414 344 plus smaller;
#X obj 386 72 t f f;
#X obj 383 373 pack 0 0;
#X obj 460 284 +;
#X text 488 283 plus x1;
#X obj 377 255 t f f;
#X obj 388 186 max 1;
#X obj 359 183 + 1;
#X obj 364 37 unpack s 0 0 0 0;
#X obj 485 38 unpack s 0 0 0 0;
#X obj 58 55 t l l;
#X obj 30 61 bng 15 250 50 0 empty empty empty 17 7 0 10 -262144 -1
-1;
#X obj 61 157 array get;
#X text 128 139 test that table exists (to keep from loading table
from disk that is no longer in pd);
#X obj 63 198 symbol;
#X obj 58 126 t b s;
#X msg 60 176 bang;
#X connect 0 0 2 0;
#X connect 2 0 34 0;
#X connect 3 1 39 0;
#X connect 4 0 5 0;
#X connect 6 0 32 0;
#X connect 6 0 33 0;
#X connect 8 0 7 0;
#X connect 9 0 11 0;
#X connect 10 0 9 0;
#X connect 10 1 9 1;
#X connect 11 0 16 0;
#X connect 12 0 14 0;
#X connect 13 0 20 0;
#X connect 14 0 15 0;
#X connect 14 0 29 0;
#X connect 15 0 14 1;
#X connect 16 0 31 0;
#X connect 16 1 30 0;
#X connect 16 2 17 0;
#X connect 17 0 14 1;
#X connect 18 0 20 1;
#X connect 19 0 18 0;
#X connect 19 1 18 1;
#X connect 20 0 23 0;
#X connect 23 0 26 0;
#X connect 25 0 10 0;
#X connect 25 1 27 1;
#X connect 26 0 7 0;
#X connect 27 0 26 1;
#X connect 29 0 13 0;
#X connect 29 1 27 0;
#X connect 30 0 13 1;
#X connect 31 0 12 0;
#X connect 32 1 25 0;
#X connect 32 2 19 0;
#X connect 32 2 23 1;
#X connect 32 3 10 1;
#X connect 32 4 19 1;
#X connect 33 0 8 0;
#X connect 34 0 3 0;
#X connect 34 1 1 0;
#X connect 36 0 40 0;
#X connect 38 0 4 0;
#X connect 39 0 36 0;
#X connect 39 1 36 2;
#X connect 39 1 38 1;
#X connect 40 0 38 0;
#X restore 118 171 pd tablestuff;
#X connect 0 0 29 0;
#X connect 1 0 32 0;
#X connect 3 0 0 0;
#X connect 4 0 32 0;
#X connect 5 0 14 0;
#X connect 8 0 10 0;
#X connect 9 0 17 0;
#X connect 10 0 21 0;
#X connect 11 0 32 0;
#X connect 12 0 2 0;
#X connect 13 0 6 0;
#X connect 14 0 1 0;
#X connect 16 0 15 0;
#X connect 17 0 16 0;
#X connect 17 0 39 0;
#X connect 18 0 20 0;
#X connect 19 0 15 0;
#X connect 20 0 7 0;
#X connect 21 0 32 0;
#X connect 22 0 34 0;
#X connect 22 0 23 0;
#X connect 23 0 18 0;
#X connect 24 0 21 0;
#X connect 25 0 26 0;
#X connect 26 1 27 0;
#X connect 26 2 23 0;
#X connect 26 2 33 0;
#X connect 26 2 24 0;
#X connect 26 2 4 0;
#X connect 27 0 1 0;
#X connect 29 0 41 0;
#X connect 29 1 12 0;
#X connect 30 0 31 0;
#X connect 31 0 23 0;
#X connect 33 0 15 0;
#X connect 34 0 15 0;
#X connect 35 0 26 0;
#X connect 36 0 37 0;
#X connect 37 0 40 0;
#X connect 39 0 36 0;
#X connect 39 1 36 0;
#X connect 39 2 36 0;
#X connect 41 0 22 0;
#X connect 41 1 42 0;
#X connect 41 2 42 1;
#X connect 41 3 13 0;
